# xmcd
#
# Track frame offsets:
#	150
#	16125
#	33975
#	51375
#	70425
#	86250
#	100500
#	122400
#	138600
#	152925
#	166961
#
# Disc length: 2418 seconds
#
# Revision: 0
# Processed by: cddbd v1.5.1PL0 Copyright (c) Steve Scherf et al.
# Submitted via: dBpowerAMP V4.0
#
DISCID=8809700b
DTITLE=Alambre Gonzalez - Sopa Caliente
DYEAR=1999
DGENRE=Blues
TTITLE0=Sopa Caliente
TTITLE1=Hortencia
TTITLE2=Desconfiado
TTITLE3=Betty Cabaret
TTITLE4=Boogie Mama
TTITLE5=Bondi Soul
TTITLE6=Yo Invito
TTITLE7=Rock Video
TTITLE8=Perfume de Licor
TTITLE9=Perro Callejero
TTITLE10=Humode Fabrica
EXTD=Sopa Caliente
EXTT0=
EXTT1=
EXTT2=
EXTT3=
EXTT4=
EXTT5=
EXTT6=
EXTT7=
EXTT8=
EXTT9=
EXTT10=
PLAYORDER=
